<?xml version="1.0" encoding="utf-8"?>
<!-- Generator: Adobe Illustrator 20.1.0, SVG Export Plug-In . SVG Version: 6.00 Build 0)  -->
<svg version="1.1" id="Layer_3" xmlns="http://www.w3.org/2000/svg" xmlns:xlink="http://www.w3.org/1999/xlink" x="0px" y="0px"
	 viewBox="0 0 512 512" style="enable-background:new 0 0 512 512;" xml:space="preserve">
<style type="text/css">
	.st0{fill:#FFFFFF;}
</style>
<g>
	<path class="st0" d="M462.3,451.5c-3.1-22.3-18.3-49.3-39.3-70.8c-25.3-25.5-56.7-40.4-88.1-41.7c-11.9-0.6-21.9,0.4-30.4,2.2
		l-45.2-94.2c-0.6-3.1,9-16.8,33.6-28.6c24.6-11.8,41.2-10.7,43.3-8.4c0,0.1,0.1,0.2,0.1,0.2c0.1,0.1,0.1,0.2,0.2,0.4
		c0,0.1,0.1,0.1,0.1,0.1c0,0.1,0.1,0.1,0.1,0.2c0,0,0,0.1,0.1,0.1c0,0,0,0.1,0.1,0.1c0.1,0.1,0.2,0.2,0.4,0.4l0.1,0.1
		c0.2,0.2,0.4,0.4,0.7,0.7c0.1,0.1,0.2,0.1,0.4,0.2c0.1,0.1,0.2,0.1,0.4,0.2c1.3,0.9,2.9,1.4,4.5,1.4c1.2,0,2.2-0.2,3.5-0.8
		c3.7-1.7,5.5-6.1,4.1-9.8l0,0c-0.1-0.1-0.1-0.4-0.2-0.6c0,0,0,0,0-0.1c-0.6-3.1,8.8-16.8,33.6-28.6c24.6-11.8,41-10.7,43.3-8.4
		c1.9,4,6.6,5.6,10.6,3.7c0,0,0,0,0.1,0h0.1c4-1.9,5.6-6.6,3.7-10.6C418,108.6,375.4,70.5,322.4,51.8c-50.5-17.8-105-15.7-153.7,5.6
		l-1.7-3c-2.1-3.8-6.9-5.2-10.7-3.1c-3.8,2.1-5.2,6.9-3.1,10.7l1.3,2.6c-47,24.8-82.3,65.6-100,116c-18.6,53-15.5,110,8.7,160.6l0,0
		c1.3,2.9,4.2,4.5,7.2,4.5c1.2,0,2.2-0.2,3.5-0.8c3.7-1.7,5.5-6.1,4.1-9.8c-0.1-0.2-0.1-0.6-0.2-0.7c-0.6-3.1,8.8-16.8,33.6-28.6
		c24.8-11.7,41.2-10.7,43.3-8.4c0.1,0.2,0.2,0.6,0.4,0.7c0,0,0,0,0,0.1c0,0,0,0.1,0.1,0.1c0,0.1,0.1,0.1,0.1,0.2
		c0.1,0.1,0.2,0.2,0.4,0.4c0,0.1,0.1,0.1,0.1,0.2l0,0l0.1,0.1c0.1,0.2,0.4,0.4,0.6,0.6l0,0l0,0c0.1,0.1,0.2,0.1,0.2,0.2
		c0.1,0.1,0.2,0.1,0.4,0.2l0,0c0,0,0.1,0,0.1,0.1c1.3,0.8,2.8,1.3,4.3,1.3c1.2,0,2.2-0.2,3.5-0.8c3.6-1.7,5.2-5.8,4.1-9.4v-0.1
		c0-0.1,0-0.1-0.1-0.2c0-0.1-0.1-0.1-0.1-0.2s0-0.1-0.1-0.2c0,0,0-0.1-0.1-0.2c-0.6-3.3,9-16.8,33.6-28.6
		c24.8-11.8,41.2-10.7,43.3-8.4l44.2,92.2c-9.5,3.8-17.7,8.8-26.1,14.1c-18.6,11.4-37.9,23.3-79,26.2C95,392.7,82.8,448.7,82.3,451
		s0.1,4.8,1.6,6.6c1.4,1.9,3.7,2.9,6.1,2.9h365.2c2.2,0,4.5-1,5.9-2.8C462.1,456.2,462.8,453.8,462.3,451.5z M286,204.2
		c-12.9,6.2-24.4,14.2-32.1,22.2c-1,1-2,2.2-2.9,3.3L175.4,72.3c12.8-4.3,26.1-4,40.3,0.9c49.5,17.5,92.9,86.9,111.1,119.8
		C314.5,193.3,299.5,197.7,286,204.2z M418.1,149.2c-1.2,0-2.3,0.1-3.6,0.1c-11.2,0.9-24.3,4.9-37.5,11.2
		c-14.1,6.8-27.5,16.2-35.5,26c-18.5-33.9-64.5-108-119.8-128C298.2,46.4,376.8,81.2,418.1,149.2z M103.7,291.6
		c-13.4,6.5-26.3,15.2-34.4,24.6c-27.5-76.5-4-161.4,56.2-213.1c-18.7,55.3,8.3,140.8,21.4,177.1C134.2,280,118,284.6,103.7,291.6z
		 M194.7,247.8c-12.9,6.2-24.4,14.2-32.1,22.2c-0.7,0.7-1.2,1.3-1.7,1.9c-6.5-18.2-15.7-47-21.3-77.5c-7.6-41.5-9.4-93.8,21.7-115.3
		l75.3,157.3C224.2,236.7,208.7,241.2,194.7,247.8z M100.8,444.8c7.4-13.9,28.3-38.6,84.3-42.6c44.9-3.3,66.8-16.6,86.1-28.6
		c8.4-5.1,16.1-9.8,24.8-13l14.5,30.3c-12.6,5.2-19.6,10.9-20.1,11.4c-3.5,2.8-4,7.8-1.2,11.2c1.6,2,3.8,2.9,6.2,2.9
		c1.7,0,3.5-0.6,5-1.7c0.1-0.1,17.8-14.2,47.7-17.2c4.3-0.4,7.6-4.3,7.1-8.7s-4.3-7.6-8.7-7.1c-7.7,0.8-14.5,2.2-20.9,4l-14.1-29.3
		c6.5-1,13.9-1.6,22.6-1.2c27.5,1.2,55,14.3,77.5,37c15.6,15.8,27.9,35.6,32.9,52.8h-344V444.8z"/>
</g>
</svg>
