<?xml version="1.0" encoding="utf-8"?>
<!-- Generator: Adobe Illustrator 20.1.0, SVG Export Plug-In . SVG Version: 6.00 Build 0)  -->
<svg version="1.1" id="Layer_1" xmlns="http://www.w3.org/2000/svg" xmlns:xlink="http://www.w3.org/1999/xlink" x="0px" y="0px"
	 viewBox="0 0 512 512" style="enable-background:new 0 0 512 512;" xml:space="preserve">
<style type="text/css">
	.st0{fill:#FFFFFF;}
</style>
<g id="_x30_27---Fishing-Boat" transform="translate(0 -1)">
	<path id="Shape" class="st0" d="M476.3,289V258c0-12.9-10.4-23.3-23.3-23.3h-31.1v-15.5c0-21.5-17.4-38.8-38.8-38.8h-12.4
		L247.2,63.4c6.5-11.7,4.8-26.1-4.1-35.9c-8.9-9.9-23.1-12.9-35.3-7.7s-19.7,17.7-18.7,31c1,13.2,10.4,24.4,23.3,27.6V289h-17.1
		c-6.1-0.1-11.9-2.5-16.3-6.8l-20.4-20.5c-7.3-7.4-17.4-11.6-27.7-11.5H49.5c-7.3,0.1-14.1,3.6-18.5,9.5c-4.3,5.9-5.6,13.5-3.5,20.4
		L50,375.2c-5.3-0.6-10.6-0.9-15.9-0.8c-4.3,0-7.8,3.5-7.8,7.8s3.5,7.8,7.8,7.8c11.9-0.3,23.8,2.1,34.6,7.2
		c12.7,5.7,26.5,8.6,40.4,8.3c14,0.3,27.8-2.5,40.5-8.3c10.8-5.1,22.7-7.5,34.6-7.2c11.9-0.3,23.8,2.2,34.6,7.2
		c12.7,5.8,26.5,8.6,40.5,8.3c39.3,0,39.8-15.5,75.1-15.5s36,15.5,75.1,15.5s39.8-15.5,75.1-15.5c4.3,0,7.8-3.5,7.8-7.8
		s-3.5-7.8-7.8-7.8c-13.3-0.4-26.6,2.3-38.8,7.8v-38.8h23.3c12.9,0,23.3-10.4,23.3-23.3v-15.5c0-4.2-1.7-8-4.5-11
		C484.4,290.6,480.5,288.9,476.3,289L476.3,289z M453,250.2c4.3,0,7.8,3.5,7.8,7.8V289h-38.8v-38.8H453z M406.5,219.1V289H391v-54.4
		c0-12.9-10.4-23.3-23.3-23.3h-15.5c-12.9,0-23.3,10.4-23.3,23.3V289h-62v-15.5h23.3c12.9,0,23.3-10.4,23.3-23.3v-15.5
		c0-12.9-10.4-23.3-23.3-23.3h-23.3v-15.5h116.4C396,195.8,406.5,206.3,406.5,219.1z M375.4,289h-31.1v-54.4c0-4.3,3.5-7.8,7.8-7.8
		h15.5c4.3,0,7.8,3.5,7.8,7.8L375.4,289L375.4,289z M266.8,226.9h23.3c4.3,0,7.8,3.5,7.8,7.8v15.5c0,4.3-3.5,7.8-7.8,7.8h-23.3
		V226.9z M204.6,48.5c0-8.6,6.9-15.5,15.5-15.5s15.5,6.9,15.5,15.5S228.8,64,220.2,64S204.6,57,204.6,48.5z M227.9,78.4
		c3.1-0.8,5.9-2,8.6-3.7l111.6,105.7h-81.4c-8.6,0-15.5,6.9-15.5,15.5V289h-23.3L227.9,78.4z M476.3,320c0,4.3-3.5,7.8-7.8,7.8
		H235.7c-4.3,0-7.8,3.5-7.8,7.8s3.5,7.8,7.8,7.8h194v44.1c-6.7,1.6-13.8,2.3-20.7,2.2c-35,0-36-15.5-75.1-15.5
		c-14-0.4-27.8,2.5-40.5,8.4c-10.8,5.1-22.6,7.6-34.5,7.4c-35,0-36-15.5-75-15.5c-14-0.4-27.8,2.5-40.5,8.4
		c-10.8,5-22.7,7.4-34.6,7.1c-21.5,0-29.2-5.5-42.1-10.2l-19.7-82.9h72.1c4.3,0,7.8-3.5,7.8-7.8s-3.5-7.8-7.8-7.8H43.6
		c-1.5-6.2-2.7-8.8,0-12.3c1.4-1.9,3.5-3.1,5.9-3.2h81.4c6.3-0.1,12.3,2.4,16.6,6.8l20.4,20.4c7.2,7.3,17,11.5,27.3,11.6h281
		L476.3,320z"/>
	<path id="Shape_1_" class="st0" d="M484.1,413.2c-39.4,0-39.8,15.5-75.1,15.5s-36-15.5-75.1-15.5c-14-0.4-27.8,2.5-40.5,8.4
		c-10.8,5-22.6,7.4-34.5,7.1c-35,0-36-15.5-75-15.5c-14-0.4-27.8,2.5-40.5,8.4c-10.8,5-22.7,7.4-34.6,7.1
		c-11.9,0.3-23.8-2.1-34.6-7.1c-12.7-5.8-26.5-8.7-40.5-8.4c-4.3,0-7.8,3.5-7.8,7.8c0,4.3,3.5,7.8,7.8,7.8
		c11.9-0.3,23.8,2.1,34.6,7.1c12.7,5.8,26.5,8.7,40.4,8.4c14,0.4,27.8-2.5,40.5-8.4c10.8-5,22.7-7.4,34.6-7.1
		c11.9-0.3,23.8,2.1,34.6,7.1c12.7,5.8,26.5,8.7,40.5,8.4c39.3,0,39.8-15.5,75.1-15.5s36,15.5,75.1,15.5s39.8-15.5,75.1-15.5
		c4.3,0,7.8-3.5,7.8-7.8C491.9,416.7,488.4,413.2,484.1,413.2L484.1,413.2z"/>
	<path id="Shape_2_" class="st0" d="M484.1,452c-39.4,0-39.8,15.5-75.1,15.5S373,452,333.9,452c-14-0.4-27.8,2.5-40.5,8.4
		c-10.8,5-22.6,7.4-34.5,7.1c-35,0-36-15.5-75-15.5c-14-0.4-27.8,2.5-40.5,8.4c-10.8,5-22.7,7.4-34.6,7.1
		c-11.9,0.3-23.8-2.1-34.6-7.1c-12.7-5.8-26.5-8.7-40.5-8.4c-4.3,0-7.8,3.5-7.8,7.8c0,4.3,3.5,7.8,7.8,7.8
		c11.9-0.3,23.8,2.1,34.6,7.1c12.7,5.8,26.5,8.7,40.4,8.4c14,0.4,27.8-2.5,40.5-8.4c10.8-5,22.7-7.4,34.6-7.1
		c11.9-0.3,23.8,2.1,34.6,7.1c12.7,5.8,26.5,8.7,40.5,8.4c39.3,0,39.8-15.5,75.1-15.5s36,15.5,75.1,15.5s39.8-15.5,75.1-15.5
		c4.3,0,7.8-3.5,7.8-7.8C491.9,455.5,488.4,452,484.1,452L484.1,452z"/>
</g>
</svg>
