<?xml version="1.0" encoding="utf-8"?>
<!-- Generator: Adobe Illustrator 19.0.0, SVG Export Plug-In . SVG Version: 6.00 Build 0)  -->
<svg version="1.1" id="Layer_1" xmlns="http://www.w3.org/2000/svg" xmlns:xlink="http://www.w3.org/1999/xlink" x="0px" y="0px"
	 viewBox="-265 357 80 53.8" style="enable-background:new -265 357 80 53.8;" xml:space="preserve">
<path d="M-247.8,358c-2.2,0-4,1.8-4,4v44c0,2.2,1.8,4,4,4h44c2.2,0,4-1.8,4-4v-33.6l-2,2V406c0,1.1-0.9,2-2,2h-44c-1.1,0-2-0.9-2-2
	v-44c0-1.1,0.9-2,2-2h44c1,0,1.8,0.7,2,1.7l1.5-1.5c-0.7-1.3-2-2.1-3.5-2.1h-44V358z M-199.3,363.4l-28.5,28.5l-9.4-9.4l-2.1,2.1
	l11.5,11.5l30.6-30.6L-199.3,363.4z M-243.8,365c-0.6,0-1,0.4-1,1s0.4,1,1,1s1-0.4,1-1S-243.2,365-243.8,365z M-239.8,365
	c-0.6,0-1,0.4-1,1s0.4,1,1,1s1-0.4,1-1S-239.2,365-239.8,365z M-235.8,365c-0.6,0-1,0.4-1,1s0.4,1,1,1s1-0.4,1-1
	S-235.2,365-235.8,365z M-231.8,365c-0.6,0-1,0.4-1,1s0.4,1,1,1s1-0.4,1-1S-231.2,365-231.8,365z M-227.8,365c-0.6,0-1,0.4-1,1
	s0.4,1,1,1s1-0.4,1-1S-227.2,365-227.8,365z M-223.8,365c-0.6,0-1,0.4-1,1s0.4,1,1,1s1-0.4,1-1S-223.2,365-223.8,365z M-219.8,365
	c-0.6,0-1,0.4-1,1s0.4,1,1,1s1-0.4,1-1S-219.2,365-219.8,365z M-215.8,365c-0.6,0-1,0.4-1,1s0.4,1,1,1s1-0.4,1-1
	S-215.2,365-215.8,365z M-211.8,365c-0.6,0-1,0.4-1,1s0.4,1,1,1s1-0.4,1-1S-211.2,365-211.8,365z M-207.8,365c-0.6,0-1,0.4-1,1
	s0.4,1,1,1s1-0.4,1-1S-207.2,365-207.8,365z M-243.8,369c-0.6,0-1,0.4-1,1s0.4,1,1,1s1-0.4,1-1S-243.2,369-243.8,369z M-243.8,373
	c-0.6,0-1,0.4-1,1s0.4,1,1,1s1-0.4,1-1S-243.2,373-243.8,373z M-243.8,377c-0.6,0-1,0.4-1,1s0.4,1,1,1s1-0.4,1-1
	S-243.2,377-243.8,377z M-243.8,381c-0.6,0-1,0.4-1,1s0.4,1,1,1s1-0.4,1-1S-243.2,381-243.8,381z M-207.8,381c-0.6,0-1,0.4-1,1
	s0.4,1,1,1s1-0.4,1-1S-207.2,381-207.8,381z M-243.8,385c-0.6,0-1,0.4-1,1s0.4,1,1,1s1-0.4,1-1S-243.2,385-243.8,385z M-207.8,385
	c-0.6,0-1,0.4-1,1s0.4,1,1,1s1-0.4,1-1S-207.2,385-207.8,385z M-243.8,389c-0.6,0-1,0.4-1,1s0.4,1,1,1s1-0.4,1-1
	S-243.2,389-243.8,389z M-207.8,389c-0.6,0-1,0.4-1,1s0.4,1,1,1s1-0.4,1-1S-207.2,389-207.8,389z M-243.8,393c-0.6,0-1,0.4-1,1
	s0.4,1,1,1s1-0.4,1-1S-243.2,393-243.8,393z M-207.8,393c-0.6,0-1,0.4-1,1s0.4,1,1,1s1-0.4,1-1S-207.2,393-207.8,393z M-243.8,397
	c-0.6,0-1,0.4-1,1s0.4,1,1,1s1-0.4,1-1S-243.2,397-243.8,397z M-207.8,397c-0.6,0-1,0.4-1,1s0.4,1,1,1s1-0.4,1-1
	S-207.2,397-207.8,397z M-243.8,401c-0.6,0-1,0.4-1,1s0.4,1,1,1s1-0.4,1-1S-243.2,401-243.8,401z M-239.8,401c-0.6,0-1,0.4-1,1
	s0.4,1,1,1s1-0.4,1-1S-239.2,401-239.8,401z M-235.8,401c-0.6,0-1,0.4-1,1s0.4,1,1,1s1-0.4,1-1S-235.2,401-235.8,401z M-231.8,401
	c-0.6,0-1,0.4-1,1s0.4,1,1,1s1-0.4,1-1S-231.2,401-231.8,401z M-227.8,401c-0.6,0-1,0.4-1,1s0.4,1,1,1s1-0.4,1-1
	S-227.2,401-227.8,401z M-223.8,401c-0.6,0-1,0.4-1,1s0.4,1,1,1s1-0.4,1-1S-223.2,401-223.8,401z M-219.8,401c-0.6,0-1,0.4-1,1
	s0.4,1,1,1s1-0.4,1-1S-219.2,401-219.8,401z M-215.8,401c-0.6,0-1,0.4-1,1s0.4,1,1,1s1-0.4,1-1S-215.2,401-215.8,401z M-211.8,401
	c-0.6,0-1,0.4-1,1s0.4,1,1,1s1-0.4,1-1S-211.2,401-211.8,401z M-207.8,401c-0.6,0-1,0.4-1,1s0.4,1,1,1s1-0.4,1-1
	S-207.2,401-207.8,401z"/>
</svg>
