<?xml version="1.0" encoding="utf-8"?>
<!-- Generator: Adobe Illustrator 19.0.0, SVG Export Plug-In . SVG Version: 6.00 Build 0)  -->
<svg version="1.1" id="Layer_1" xmlns="http://www.w3.org/2000/svg" xmlns:xlink="http://www.w3.org/1999/xlink" x="0px" y="0px"
	 viewBox="-273 365 64 64" style="enable-background:new -273 365 64 64;" xml:space="preserve">
<style type="text/css">
	.st0{fill:#383838;}
</style>
<title></title>
<g id="Church">
	<path class="st0" d="M-213,420h-1v-3c0-0.6-0.4-1-1-1h-1v-19c0-0.4-0.2-0.7-0.5-0.9l-13.5-7.7V385c0,0,0-0.1,0-0.1
		c0-0.1,0-0.1,0-0.2c0-0.1-0.1-0.1-0.1-0.2c0,0,0-0.1-0.1-0.1l-9.8-10.7V372h1c0.6,0,1-0.4,1-1s-0.4-1-1-1h-1v-1c0-0.6-0.4-1-1-1
		s-1,0.4-1,1v1h-1c-0.6,0-1,0.4-1,1s0.4,1,1,1h1v1.6l-9.7,10.7c0,0-0.1,0.1-0.1,0.1c0,0.1-0.1,0.1-0.1,0.2c0,0.1,0,0.1,0,0.2
		c0,0-0.1,0.1-0.1,0.1v3.4l-13.5,7.7c-0.3,0.2-0.5,0.5-0.5,0.9v19h-1c-0.6,0-1,0.4-1,1v3h-1c-0.6,0-1,0.4-1,1v4c0,0.6,0.4,1,1,1h56
		c0.6,0,1-0.4,1-1v-4C-212,420.4-212.4,420-213,420z M-218,397.6V416h-12v-25.3L-218,397.6z M-235,416v-14.3c0-3.3-2.7-6-6-6
		s-6,2.7-6,6V416h-3v-30h18v30H-235z M-237,416h-8v-14.3c0-2.2,1.8-4,4-4s4,1.8,4,4V416z M-241,375.5l7.7,8.5h-15.5L-241,375.5z
		 M-264,397.6l12-6.9V416h-12V397.6z M-266,418h50v2h-50V418z M-214,424h-54v-2h54V424z"/>
	<path class="st0" d="M-241,388c-1.7,0-3,1.3-3,3s1.3,3,3,3s3-1.3,3-3S-239.3,388-241,388z M-241,392c-0.6,0-1-0.4-1-1s0.4-1,1-1
		s1,0.4,1,1S-240.4,392-241,392z"/>
	<path class="st0" d="M-227,402h6c0.6,0,1-0.4,1-1v-1c0-2.2-1.8-4-4-4s-4,1.8-4,4v1C-228,401.6-227.6,402-227,402z M-224,398
		c1.1,0,2,0.9,2,2h-4C-226,398.9-225.1,398-224,398z"/>
	<path class="st0" d="M-258,396c-2.2,0-4,1.8-4,4v1c0,0.6,0.4,1,1,1h6c0.6,0,1-0.4,1-1v-1C-254,397.8-255.8,396-258,396z M-260,400
		c0-1.1,0.9-2,2-2s2,0.9,2,2H-260z"/>
	<path class="st0" d="M-255,404h-6c-0.6,0-1,0.4-1,1v8c0,0.6,0.4,1,1,1h6c0.6,0,1-0.4,1-1v-8C-254,404.4-254.4,404-255,404z
		 M-256,412h-4v-6h4V412z"/>
	<path class="st0" d="M-227,414h6c0.6,0,1-0.4,1-1v-8c0-0.6-0.4-1-1-1h-6c-0.6,0-1,0.4-1,1v8C-228,413.6-227.6,414-227,414z
		 M-226,406h4v6h-4V406z"/>
</g>
</svg>
