<?xml version="1.0" encoding="utf-8"?>
<!-- Generator: Adobe Illustrator 19.0.0, SVG Export Plug-In . SVG Version: 6.00 Build 0)  -->
<svg version="1.1" id="Layer_1" xmlns="http://www.w3.org/2000/svg" xmlns:xlink="http://www.w3.org/1999/xlink" x="0px" y="0px"
	 viewBox="121 141 854 512" style="enable-background:new 121 141 854 512;" xml:space="preserve">
<path d="M331.5,387.6c33.9,0,63.2-12.2,87.2-36.1c24-24,36.1-53.3,36.1-87.2s-12.2-63.2-36.1-87.2c-24-24-53.3-36.1-87.2-36.1
	s-63.2,12.2-87.2,36.1s-36.2,53.3-36.2,87.2s12.2,63.2,36.1,87.2C268.2,375.5,297.6,387.6,331.5,387.6z M265.5,198.3
	c18.4-18.4,40-27.3,66-27.3s47.6,8.9,66,27.3s27.3,40,27.3,66s-8.9,47.6-27.3,66s-40,27.3-66,27.3s-47.6-8.9-66-27.3
	s-27.3-40-27.3-66C238.1,238.3,247.1,216.7,265.5,198.3z"/>
<path d="M547.2,534.7c-0.7-10-2.1-20.9-4.1-32.4c-2.1-11.6-4.8-22.5-8-32.5c-3.3-10.3-7.8-20.6-13.4-30.3
	c-5.8-10.2-12.6-19-20.2-26.3c-8-7.6-17.7-13.7-29-18.2c-11.2-4.4-23.7-6.7-37-6.7c-5.2,0-10.3,2.1-20,8.5c-6,3.9-13,8.4-20.9,13.5
	c-6.7,4.3-15.8,8.3-27,11.9c-10.9,3.5-22.1,5.3-33,5.3c-11,0-22.1-1.8-33-5.3c-11.2-3.6-20.3-7.6-27-11.9c-7.8-5-14.8-9.5-20.9-13.5
	c-9.8-6.4-14.8-8.5-20-8.5c-13.3,0-25.8,2.3-37,6.7c-11.3,4.5-21,10.6-29,18.2c-7.6,7.3-14.4,16.1-20.2,26.3
	c-5.6,9.8-10.1,20-13.4,30.3c-3.2,10-5.9,20.9-8,32.5c-2.1,11.5-3.5,22.4-4.1,32.4c-0.7,9.8-1,20-1,30.2c0,26.7,8.5,48.4,25.3,64.3
	c16.6,15.8,38.5,23.8,65.1,23.8h246.5c26.6,0,48.5-8,65.1-23.7c16.8-15.9,25.3-37.6,25.3-64.3C548.3,554.6,547.9,544.5,547.2,534.7z
	 M502.3,607.5c-10.9,10.4-25.4,15.5-44.4,15.5H211.4c-18.9,0-33.4-5.1-44.4-15.5c-10.7-10.2-15.9-24.1-15.9-42.6
	c0-9.6,0.3-19.1,0.9-28.2c0.6-8.9,1.9-18.7,3.8-29.1c1.8-10.3,4.2-19.9,7-28.7c2.7-8.4,6.3-16.7,10.9-24.7
	c4.3-7.6,9.3-14.2,14.8-19.4c5.1-4.9,11.6-9,19.3-12c7.1-2.8,15-4.3,23.6-4.6c1.1,0.6,2.9,1.6,6,3.6c6.2,4,13.3,8.6,21.1,13.6
	c8.9,5.6,20.3,10.8,33.9,15.2c13.9,4.5,28.2,6.8,42.3,6.8c14.1,0,28.3-2.3,42.3-6.8c13.6-4.4,25.1-9.5,33.9-15.2
	c8-5.1,15-9.6,21.1-13.6c3-2,4.9-3,6-3.6c8.6,0.2,16.6,1.8,23.6,4.6c7.6,3,14.1,7.1,19.3,12c5.5,5.3,10.5,11.8,14.8,19.4
	c4.5,8,8.2,16.3,10.9,24.7c2.8,8.8,5.2,18.4,7,28.7c1.9,10.4,3.1,20.2,3.8,29.1l0,0c0.6,9.1,1,18.5,1,28.1
	C518.3,583.4,513,597.3,502.3,607.5z"/>
<g>
	<path d="M653,348.7l14.5,23c4,6.5,7.5,12.5,11,18.8h0.8c3.5-6.8,7-13,10.5-19.3l13.5-22.5h33.5L696,407.2l41.5,63.3h-34.8l-15-24.3
		c-4-6.5-7.5-13-11-19.8h-0.5c-3.5,7-7,13-11,19.8l-14,24.3h-34l42.3-62l-40.8-59.8H653z"/>
	<path d="M802,470.5v-18.8l19.3-17.8c38.3-35.5,56.3-55,56.5-76.5c0-14.5-7.8-27.3-29-27.3c-14.3,0-26.5,7.3-34.8,13.5l-9-21.8
		c11.8-9.5,29.5-16.8,50-16.8c36,0,53.5,22.8,53.5,49.3c0,28.5-20.5,51.5-48.8,77.8l-14.3,12.3v0.5h66.8v25.5H802z"/>
</g>
</svg>
