<?xml version="1.0" encoding="utf-8"?>
<!-- Generator: Adobe Illustrator 19.0.0, SVG Export Plug-In . SVG Version: 6.00 Build 0)  -->
<svg version="1.1" id="Layer_1" xmlns="http://www.w3.org/2000/svg" xmlns:xlink="http://www.w3.org/1999/xlink" x="0px" y="0px"
	 viewBox="-265 357 80 53.8" style="enable-background:new -265 357 80 53.8;" xml:space="preserve">
<path d="M-203,410c2.2,0,4-1.8,4-4v-44c0-2.2-1.8-4-4-4h-44c-2.2,0-4,1.8-4,4v33.6l2-2V362c0-1.1,0.9-2,2-2h44c1.1,0,2,0.9,2,2v44
	c0,1.1-0.9,2-2,2h-44c-1,0-1.8-0.7-2-1.7l-1.5,1.5c0.7,1.3,2,2.1,3.5,2.1h44V410z M-247,358c-2.2,0-4,1.8-4,4v44c0,2.2,1.8,4,4,4h44
	c2.2,0,4-1.8,4-4v-33.6l-2,2V406c0,1.1-0.9,2-2,2h-44c-1.1,0-2-0.9-2-2v-44c0-1.1,0.9-2,2-2h44c1,0,1.8,0.7,2,1.7l1.5-1.5
	c-0.7-1.3-2-2.1-3.5-2.1h-44V358z M-243,365c-0.6,0-1,0.4-1,1s0.4,1,1,1s1-0.4,1-1S-242.4,365-243,365z M-239,365c-0.6,0-1,0.4-1,1
	s0.4,1,1,1s1-0.4,1-1S-238.4,365-239,365z M-235,365c-0.6,0-1,0.4-1,1s0.4,1,1,1s1-0.4,1-1S-234.4,365-235,365z M-231,365
	c-0.6,0-1,0.4-1,1s0.4,1,1,1s1-0.4,1-1S-230.4,365-231,365z M-227,365c-0.6,0-1,0.4-1,1s0.4,1,1,1s1-0.4,1-1S-226.4,365-227,365z
	 M-223,365c-0.6,0-1,0.4-1,1s0.4,1,1,1s1-0.4,1-1S-222.4,365-223,365z M-219,365c-0.6,0-1,0.4-1,1s0.4,1,1,1s1-0.4,1-1
	S-218.4,365-219,365z M-215,365c-0.6,0-1,0.4-1,1s0.4,1,1,1s1-0.4,1-1S-214.4,365-215,365z M-211,365c-0.6,0-1,0.4-1,1s0.4,1,1,1
	s1-0.4,1-1S-210.4,365-211,365z M-207,365c-0.6,0-1,0.4-1,1s0.4,1,1,1s1-0.4,1-1S-206.4,365-207,365z M-243,369c-0.6,0-1,0.4-1,1
	s0.4,1,1,1s1-0.4,1-1S-242.4,369-243,369z M-243,373c-0.6,0-1,0.4-1,1s0.4,1,1,1s1-0.4,1-1S-242.4,373-243,373z M-243,377
	c-0.6,0-1,0.4-1,1s0.4,1,1,1s1-0.4,1-1S-242.4,377-243,377z M-243,381c-0.6,0-1,0.4-1,1s0.4,1,1,1s1-0.4,1-1S-242.4,381-243,381z
	 M-207,381c-0.6,0-1,0.4-1,1s0.4,1,1,1s1-0.4,1-1S-206.4,381-207,381z M-243,385c-0.6,0-1,0.4-1,1s0.4,1,1,1s1-0.4,1-1
	S-242.4,385-243,385z M-207,385c-0.6,0-1,0.4-1,1s0.4,1,1,1s1-0.4,1-1S-206.4,385-207,385z M-243,389c-0.6,0-1,0.4-1,1s0.4,1,1,1
	s1-0.4,1-1S-242.4,389-243,389z M-207,389c-0.6,0-1,0.4-1,1s0.4,1,1,1s1-0.4,1-1S-206.4,389-207,389z M-207,369c-0.6,0-1,0.4-1,1
	s0.4,1,1,1s1-0.4,1-1S-206.4,369-207,369z M-207,373c-0.6,0-1,0.4-1,1s0.4,1,1,1s1-0.4,1-1S-206.4,373-207,373z M-207,377
	c-0.6,0-1,0.4-1,1s0.4,1,1,1s1-0.4,1-1S-206.4,377-207,377z M-243,393c-0.6,0-1,0.4-1,1s0.4,1,1,1s1-0.4,1-1S-242.4,393-243,393z
	 M-207,393c-0.6,0-1,0.4-1,1s0.4,1,1,1s1-0.4,1-1S-206.4,393-207,393z M-243,397c-0.6,0-1,0.4-1,1s0.4,1,1,1s1-0.4,1-1
	S-242.4,397-243,397z M-207,397c-0.6,0-1,0.4-1,1s0.4,1,1,1s1-0.4,1-1S-206.4,397-207,397z M-243,401c-0.6,0-1,0.4-1,1s0.4,1,1,1
	s1-0.4,1-1S-242.4,401-243,401z M-239,401c-0.6,0-1,0.4-1,1s0.4,1,1,1s1-0.4,1-1S-238.4,401-239,401z M-235,401c-0.6,0-1,0.4-1,1
	s0.4,1,1,1s1-0.4,1-1S-234.4,401-235,401z M-231,401c-0.6,0-1,0.4-1,1s0.4,1,1,1s1-0.4,1-1S-230.4,401-231,401z M-227,401
	c-0.6,0-1,0.4-1,1s0.4,1,1,1s1-0.4,1-1S-226.4,401-227,401z M-223,401c-0.6,0-1,0.4-1,1s0.4,1,1,1s1-0.4,1-1S-222.4,401-223,401z
	 M-219,401c-0.6,0-1,0.4-1,1s0.4,1,1,1s1-0.4,1-1S-218.4,401-219,401z M-215,401c-0.6,0-1,0.4-1,1s0.4,1,1,1s1-0.4,1-1
	S-214.4,401-215,401z M-211,401c-0.6,0-1,0.4-1,1s0.4,1,1,1s1-0.4,1-1S-210.4,401-211,401z M-207,401c-0.6,0-1,0.4-1,1s0.4,1,1,1
	s1-0.4,1-1S-206.4,401-207,401z M-201,372.4h1.5v-12.2h-1.5V372.4z"/>
</svg>
